PathFileType	4	(X/Y/Z)	/home/abdul/Desktop/myosuite/custom_workspace/IK/output/S16_12_1.trc
DataRate	CameraRate	NumFrames	NumMarkers	Units	OrigDataRate	OrigDataStartFrame	OrigNumFrames
200.0	200.0	28	3	mm	200.0	153	1216
Frame#	Time	V_Shoulder			V_Elbow			V_Wrist		
		X1	Y1	Z1	X2	Y2	Z2	X3	Y3	Z3

153	0.76	-126.31956315681968	606.5530302016523	292.984078804908	-261.9830069815116	492.2320614948019	24.17901535095044	-210.0427268784656	322.4182120813492	63.41816871379531
154	0.765	-125.85987404417516	606.4548760395209	293.3100729630467	-262.0902139008261	491.3655593355402	24.90649878655192	-209.18940113246646	321.03486279474345	64.36907767086225
155	0.77	-125.39694304101772	606.3503920923612	293.6332734714166	-262.18624996036505	490.4848233682259	25.633346008676043	-208.3144975514432	319.6212912897154	65.30369541029538
156	0.775	-124.93095567799521	606.2394388920235	293.9534123332133	-262.27077174358357	489.5904948152569	26.358850260120533	-207.41839550211918	318.17842742141363	66.22059118857747
157	0.78	-124.4620979632889	606.1218816282063	294.27022776814096	-262.3434569445996	488.68323733194416	27.082309328897892	-206.50150005552754	316.70725657960725	67.11836888495627
158	0.785	-123.99055610528809	605.997590438685	294.5834647017626	-262.40400526032477	487.7637354916192	27.8030271914945	-205.56424096789837	315.2088175871441	67.99567075254889
159	0.79	-123.5165162390689	605.8664406927977	294.892875237719	-262.452139215244	486.8326932144018	28.52031563386612	-204.6070716245078	313.6842004358884	68.85118104412778
160	0.795	-123.04016415733629	605.7283132674677	295.1982191115882	-262.48760491589195	485.8908321449598	29.23349584475983	-203.63046795157712	312.13454386811065	69.68362949997515
161	0.8	-122.56168504647069	605.5830948150493	295.4992641252158	-262.51017273234913	484.9388899847519	29.941899976069656	-202.6349273012754	310.5610328119401	70.49179468584097
162	0.805	-122.08126322829891	605.4306780223039	295.79578656040036	-262.5196379043663	483.97761878437814	30.644872665072903	-201.62096731481557	308.9648956800803	71.27450716973702
163	0.81	-121.59908190818766	605.270961859832	296.08757157088166	-262.5158210700202	483.0077832017713	31.34177251355529	-200.58912476853646	307.34740154153803	72.03065252703857
164	0.815	-121.11532293003252	605.1038518213045	296.3744135516439	-262.49856871510616	482.03015873204396	32.031973519014976	-199.53995440774042	305.70985717661006	72.75917416414477
165	0.82	-120.63016653869035	604.9292601518649	296.6561164846158	-262.4677535417802	481.0455299148626	32.714866453337265	-198.4740277729013	304.05360402582	73.45907595176082
166	0.825	-120.14379115037438	604.7471060650922	296.9324942599164	-262.4232747552797	480.05468852524996	33.38986018455255	-197.39193202268245	302.3800150438865	74.12942465970687
167	0.83	-119.65637313150319	604.5573159479444	297.20337097187274	-262.3650582678649	479.05843175372047	34.05638293752832	-196.29426875800155	300.69049147013885	74.76935218602401
168	0.835	-119.16808658646346	604.35982355313	297.46858118910876	-262.29305681944624	478.0575603816334	34.713883489701	-195.1816528511597	298.98645952707375	75.37805757403265
169	0.84	-118.67910315471495	604.1545701783874	297.7279701980836	-262.2072500146778	477.0528769576006	35.361832298223796	-194.0547112838101	297.26936705896435	75.95480881189644
170	0.845	-118.18959181763348	603.9415048321758	297.98139421953834	-262.1076442766197	476.04518398071724	35.999722555190765	-192.91408199728852	295.5406801225913	76.49894441015276
171	0.85	-117.69971871545322	603.7205843853261	298.2287205973881	-261.9942727173853	475.0352820962879	36.62707116789399	-191.76041275855732	293.8018795422647	77.00987475358257
172	0.855	-117.20964697463513	603.4917737082241	298.46982795968387	-261.86719492650445	474.0239683096049	37.2434196613789	-190.5943600447349	292.05445744134295	77.4870832247025
173	0.86	-116.71953654595268	603.2550457931396	298.70460635134754	-261.72649667804006	473.0120342231968	37.848335000879665	-189.4165879488978	290.29991376243476	77.93012709706878
174	0.865	-116.22954405354915	603.0103818613519	298.9329573384705	-261.5722895577984	472.00026430280855	38.44141033204237	-188.22776710954722	288.5397527883923	78.33863819747734
175	0.87	-115.7398226551855	602.7577714547598	299.1547940840506	-261.40471051226785	470.98943417719306	39.02226563717536	-187.0285736658385	286.77547967606347	78.71232333702741
176	0.875	-115.25052191385886	602.4972125117025	299.3700413951262	-261.22392132120507	469.9803089766027	39.59054830610273	-185.81968824037676	285.008597014581	79.05096451187913
177	0.88	-114.76178768093575	602.2287114267592	299.578635741351	-261.0301079960668	468.97364171465347	40.145933620536994	-184.60179495108906	283.24060141971927	79.35441887537804
178	0.885	-114.2737619909063	601.9522830943382	299.780525245139	-260.823480106748	467.9701717180103	40.68812515122809	-183.3755804533959	281.47298017554834	79.62261848403676
179	0.89	-113.78658296782783	601.6679509359029	299.9756696435912	-260.6042700393431	466.97062310809827	41.216855067487614	-182.14173301362476	279.7072079342694	79.85556982065215
180	0.895	-113.3003847434901	601.3757469107297	300.16404022249657	-260.3727321878877	465.97570333879435	41.73188435902662	-180.900941614337	277.94474348472	80.05335309859373
